<svg width="80" height="36" viewBox="0 0 80 36" fill="none" xmlns="http://www.w3.org/2000/svg">
<path d="M18.6641 11.4258V20.3809H17.3379V15.8008H15.0273V14.7344H17.3379V11.4258H18.6641ZM18.9785 22.3359V23.4023H10.6934V19.6016H12.0059V22.3359H18.9785ZM12.8262 13.873C12.833 15.4316 13.9404 16.9561 15.7793 17.5918L15.123 18.6035C13.7422 18.125 12.7305 17.1406 12.1973 15.9238C11.6641 17.2773 10.584 18.3574 9.12109 18.877L8.45117 17.8379C10.3447 17.1885 11.5205 15.5752 11.5137 13.8867V13.4219H8.84766V12.3691H15.4512V13.4219H12.8262V13.873ZM23.7948 15.1719C23.7948 17.0859 24.6904 19.0547 26.3652 19.957L25.6405 20.9414C24.4648 20.3125 23.6445 19.1436 23.1933 17.7695C22.7421 19.2871 21.8945 20.5381 20.746 21.2148L19.9804 20.2305C21.6894 19.2461 22.5507 17.1338 22.5507 15.1719V14.6797H20.3632V13.6133H22.5507V11.8359H23.8085V13.6133H25.9687V14.6797H23.7948V15.1719ZM30.6445 11.4121V23.6484H29.3866V11.4121H30.6445ZM28.1425 11.6719V23.0469H26.912V17.2637H25.162V16.1973H26.912V11.6719H28.1425ZM43.0077 21.0645V22.1445H31.8104V21.0645H36.7323V18.5488H33.0819V12.2461H34.3807V14.3379H40.3963V12.2461H41.6952V18.5488H38.0311V21.0645H43.0077ZM34.3807 17.4824H40.3963V15.4043H34.3807V17.4824ZM53.6619 11.4121V23.6484H52.363V11.4121H53.6619ZM50.0115 12.7109C50.0183 16.3066 48.5007 19.4102 44.2966 21.4336L43.5994 20.3945C46.867 18.8428 48.4392 16.6279 48.699 13.7637H44.2009V12.7109H50.0115Z" fill="#B7BFC8"/>
<path d="M61.5501 22.7844L66.45 18L61.5501 13.2156" stroke="#B7BFC8" stroke-width="1.4" stroke-linecap="round" stroke-linejoin="round"/>
</svg>
